<svg viewBox="0 0 32 32" width="32" xmlns="http://www.w3.org/2000/svg">
    <circle cx="16" cy="16" r="16" fill="#EC1639"/>
    <path d="m23.433 8.5878c-0.3732-0.3793-0.8715-0.58784-1.4033-0.58784l-4.6932 0.0697-0.0825 0.00221c-0.8787 0.03376-1.7016 0.3928-2.3253 1.0165l-7.3517 7.3519-0.04567 0.0471c-0.34336 0.3661-0.53159 0.8417-0.53159 1.3464 0 0.5266 0.20495 1.0213 0.57726 1.3934l5.1958 5.1961 0.0472 0.0457c0.3664 0.3432 0.842 0.5314 1.3463 0.5314 0.5263 0 1.0213-0.205 1.3935-0.5773l7.3517-7.3517 0.0577-0.059c0.6071-0.6361 0.9476-1.4669 0.9608-2.3486l0.0697-4.6634-1e-4 -0.06368c-0.0083-0.50803-0.2081-0.98512-0.5666-1.3489zm-2.5288 2.5084c-0.3526-0.3528-0.8217-0.547-1.3203-0.547-0.4989 0-0.9679 0.1942-1.3206 0.547-0.728 0.728-0.728 1.913 0 2.641 0.3527 0.3526 0.8217 0.547 1.3206 0.547 0.4988 0 0.9679-0.1942 1.3203-0.547 0.7282-0.728 0.7282-1.913 0-2.641z"
          clip-rule="evenodd" fill="#fff" fill-rule="evenodd"/>
    <path d="m22.03 8v-0.25003l-0.0037 6e-5 0.0037 0.24997zm1.4033 0.58784-0.1782 0.17535 2e-4 1.3e-4 0.178-0.17548zm-6.0965-0.51814-0.0037-0.24999-3e-3 8e-5 0.0067 0.24991zm-0.0825 0.00221-0.0067-0.24993-0.0029 1.2e-4 0.0096 0.24981zm-2.3253 1.0165-0.1768-0.17677 0.1768 0.17677zm-7.3517 7.3519-0.1768-0.1768-0.00274 0.0028 0.17954 0.174zm-0.04567 0.0471-0.17956-0.174-0.00278 3e-3 0.18234 0.171zm0.04567 2.7398 0.17678-0.1767-5e-5 -1e-4 -0.17673 0.1768zm5.1958 5.1961-0.1768 0.1768 3e-3 0.0029 0.1738-0.1797zm0.0472 0.0457-0.1739 0.1796 3e-3 0.0028 0.1709-0.1824zm2.7398-0.0459-0.1768-0.1768-1e-4 1e-4 0.1769 0.1767zm7.3517-7.3517 0.1768 0.1768 2e-3 -0.0021-0.1788-0.1747zm0.0577-0.059 0.1788 0.1747 2e-3 -0.0021-0.1808-0.1726zm0.9608-2.3486 0.25 0.0037-0.25-0.0037zm0.0697-4.6634 0.25 0.0037v-0.0039l-0.25 2e-4zm-1e-4 -0.06368 0.2501-2e-4 -1e-4 -0.00393-0.25 0.00413zm-3.0954 1.1595-0.1768 0.1768h1e-4l0.1767-0.1768zm-2.6409 0 0.1768 0.1768-0.1768-0.1768zm0 2.641 0.1768-0.1768-0.1768 0.1768zm2.6409 0-0.1767-0.1768-1e-4 1e-4 0.1768 0.1767zm1.1255-5.4872c0.4648 0 0.8989 0.18167 1.2251 0.51319l0.3564-0.35071c-0.4203-0.42708-0.9828-0.66248-1.5815-0.66248v0.5zm-4.6895 0.06967 4.6932-0.0697-0.0074-0.49994-4.6932 0.0697 0.0074 0.49994zm-0.0795 0.00215 0.0825-0.00221-0.0134-0.49982-0.0825 0.00221 0.0134 0.49982zm-2.1552 0.94336c0.5791-0.57916 1.3424-0.91211 2.1581-0.94345l-0.0192-0.49963c-0.9416 0.03618-1.8243 0.4213-2.4925 1.0895l0.3536 0.35355zm-7.3518 7.3519 7.3518-7.3519-0.3536-0.35355-7.3517 7.3519 0.35356 0.3536zm-0.04291 0.0443 0.04566-0.0471-0.35907-0.348-0.04566 0.0472 0.35907 0.3479zm-0.46113 1.1724c0-0.4413 0.16414-0.8557 0.46394-1.1753l-0.36469-0.3421c-0.38694 0.4126-0.59925 0.9493-0.59925 1.5174h0.5zm0.50399 1.2166c-0.32538-0.3252-0.50399-0.7563-0.50399-1.2166h-0.5c0 0.5929 0.23128 1.1512 0.65053 1.5703l0.35346-0.3537zm5.1959 5.1961-5.1959-5.196-0.35356 0.3535 5.1959 5.1961 0.3535-0.3536zm0.0442 0.0428-0.0471-0.0457-0.3477 0.3594 0.0472 0.0456 0.3476-0.3593zm1.1725 0.4611c-0.4409 0-0.8553-0.1641-1.1754-0.4639l-0.3418 0.3649c0.4128 0.3866 0.9494 0.599 1.5172 0.599v-0.5zm1.2166-0.504c-0.3251 0.3253-0.7566 0.504-1.2166 0.504v0.5c0.5925 0 1.1512-0.2313 1.5703-0.6505l-0.3537-0.3535zm7.3518-7.3518-7.3517 7.3517 0.3535 0.3536 7.3518-7.3517-0.3536-0.3536zm0.0557-0.057-0.0577 0.0591 0.3576 0.3494 0.0577-0.059-0.3576-0.3495zm0.8896-2.1776c-0.0122 0.8188-0.3281 1.5893-0.8917 2.1797l0.3617 0.3453c0.6506-0.6816 1.0158-1.5727 1.03-2.5175l-0.5-0.0075zm0.0697-4.6634-0.0697 4.6634 0.5 0.0075 0.0697-4.6634-0.5-0.00746zm-1e-4 -0.05972 1e-4 0.06368 0.5-4e-4 -1e-4 -0.06368-0.5 4e-4zm-0.4946-1.1736c0.3134 0.31802 0.4874 0.73376 0.4947 1.1775l0.4999-0.00826c-0.0094-0.57229-0.2349-1.1107-0.6385-1.5202l-0.3561 0.35097zm-3.6711 2.0359c0.4324 0 0.8378 0.1679 1.1435 0.4738l0.3537-0.3535c-0.3996-0.3998-0.9323-0.6203-1.4972-0.6203v0.5zm-1.1438 0.4738c0.3058-0.3059 0.7112-0.4738 1.1438-0.4738v-0.5c-0.5652 0-1.0978 0.2205-1.4974 0.6203l0.3536 0.3535zm0 2.2874c-0.6304-0.6304-0.6304-1.657 0-2.2874l-0.3536-0.3535c-0.8256 0.8256-0.8256 2.1688 0 2.9944l0.3536-0.3535zm1.1438 0.4738c-0.4326 0-0.838-0.168-1.1438-0.4738l-0.3536 0.3535c0.3996 0.3996 0.9322 0.6203 1.4974 0.6203v-0.5zm1.1435-0.4737c-0.3056 0.3058-0.7109 0.4737-1.1435 0.4737v0.5c0.5651 0 1.0978-0.2205 1.4972-0.6204l-0.3537-0.3533zm1e-4 -2.2875c0.6305 0.6304 0.6305 1.657 0 2.2874l0.3535 0.3536c0.8258-0.8257 0.8258-2.1689 0-2.9946l-0.3535 0.3536z"
          fill="#fff"/>
</svg>
