<svg viewBox="0 0 32 32" width="32" xmlns="http://www.w3.org/2000/svg">
    <circle cx="16" cy="16" r="16" fill="#f90"/>
    <path d="m11.745 21.744-4.9928 2.3274v-13.814l5.0302-2.3274v13.814h-0.0375zm6.7795 2.3275-5.0303-2.3275v-13.777l5.0303 2.3274v13.777zm1.7121 0 5.0303-2.3275v-13.777l-5.0303 2.2899v13.814z"
          clip-rule="evenodd" fill="#fff" fill-rule="evenodd"/>
    <path d="m6.752 24.071h-0.3v0.4709l0.42676-0.199-0.12676-0.2719zm4.9928-2.3274v-0.3h-0.0665l-0.0603 0.0281 0.1268 0.2719zm-4.9928-11.487-0.12597-0.27224-0.17403 0.08054v0.1917h0.3zm5.0302-2.3274h0.3v-0.46936l-0.426 0.19709 0.126 0.27227zm0 13.814v0.3h0.3v-0.3h-0.3zm1.7117 0h-0.3v0.1918l0.1741 0.0805 0.1259-0.2723zm5.0303 2.3275-0.126 0.2722 0.426 0.1971v-0.4693h-0.3zm-5.0303-16.104 0.126-0.27227-0.426-0.19709v0.46936h0.3zm5.0303 2.3274h0.3v-0.1917l-0.1741-0.0806-0.1259 0.2723zm6.7424 11.449 0.1259 0.2723 0.1741-0.0805v-0.1918h-0.3zm-5.0303 2.3275h-0.3v0.4693l0.426-0.1971-0.126-0.2722zm5.0303-16.104h0.3v-0.46619l-0.4243 0.19315 0.1243 0.27304zm-5.0303 2.2899-0.1243-0.27306-0.1757 0.07996v0.1931h0.3zm-13.358 14.086 4.9927-2.3274-0.2535-0.5438-4.9927 2.3274 0.25351 0.5438zm-0.42676-14.086v13.814h0.6v-13.814h-0.6zm5.2042-2.5997-5.0302 2.3274 0.25195 0.54454 5.0303-2.3274-0.252-0.54454zm0.426 14.087v-13.814h-0.6v13.814h0.6zm-0.3375 0.3h0.0375v-0.6h-0.0375v0.6zm1.6233-0.0277 5.0302 2.3274 0.2519-0.5445-5.0302-2.3274-0.2519 0.5445zm-0.1741-14.049v13.777h0.6v-13.777h-0.6zm5.4562 2.0551-5.0302-2.3274-0.2519 0.54454 5.0302 2.3274 0.2519-0.5446zm0.1741 14.049v-13.777h-0.6v13.777h0.6zm6.3164-2.5997-5.0302 2.3274 0.2519 0.5445 5.0302-2.3274-0.2519-0.5445zm-0.174-13.505v13.777h0.6v-13.777h-0.6zm-4.606 2.5629 5.0303-2.2899-0.2486-0.54608-5.0303 2.2899 0.2486 0.54606zm0.1757 13.541v-13.814h-0.6v13.814h0.6z"
          fill="#fff"/>
</svg>
