<svg xmlns="http://www.w3.org/2000/svg" xmlns:xlink="http://www.w3.org/1999/xlink" width="540" height="154"
     viewBox="0 0 540 154" class="s1sb4ezy-2 jOgWFd">
    <path fill="#0786E7"
          d="M313.869 52.949l.101 72.396-14.183.021-.101-72.396 14.183-.021zM255.4 79.348c-.022-17.544 12.015-26.333 36.115-26.368l.021 14.17c-8.827.01-14.919 1.242-18.281 3.699-2.45 1.824-3.667 4.643-3.664 8.467l.068 46.09-14.192.021-.067-46.079zm-45.328-26.252c22.554-.028 33.852 12.043 33.885 36.218l.053 36.128-14.192.021-.05-36.134c-.013-7.37-1.245-12.685-3.7-15.954-3.099-4.086-8.423-6.125-15.976-6.109-7.552.006-12.815 2.057-15.809 6.15-2.457 3.273-3.677 8.599-3.667 15.969l.051 36.139-14.182.02-.056-36.138c-.005-7.37-1.245-12.688-3.708-15.957-3.094-4.086-8.417-6.119-15.96-6.109-7.555.01-12.823 2.061-15.821 6.155-2.445 3.273-3.663 8.597-3.652 15.961l.05 36.139-14.189.021-.051-36.123c-.033-24.178 11.174-36.286 33.643-36.316 12.01-.018 20.913 3.637 26.752 10.972 5.712-7.353 14.574-11.033 26.579-11.053zm-112.539.162l14.184-.021.107 72.391-14.188.021-.103-72.391zm-42.616 58.297c8.549-.015 14.227-2.668 17.041-7.961l15.002-.025c-3.884 14.745-14.561 22.12-32.023 22.141-22.456.035-33.711-12.038-33.744-36.214-.033-24.092 11.184-36.142 33.643-36.178 17.463-.024 28.159 7.314 32.084 22.02l-15.002.021c-2.73-5.271-8.421-7.888-17.062-7.878-7.551.016-12.815 2.018-15.813 6.023-2.45 3.282-3.675 8.597-3.66 15.972.005 7.37 1.245 12.689 3.708 15.963 3.008 4.085 8.276 6.125 15.826 6.116zm57.707-78.609c3.276 4.479 2.347 10.733-2.091 13.975-4.43 3.245-10.669 2.245-13.95-2.229-3.276-4.48-2.341-10.731 2.094-13.972 4.428-3.248 10.677-2.247 13.947 2.226zm202.156-.284c3.273 4.479 2.339 10.729-2.099 13.973-4.423 3.243-10.674 2.245-13.947-2.233-3.281-4.478-2.342-10.731 2.095-13.967 4.43-3.247 10.668-2.246 13.951 2.227zm155.64 53.292c-6.511.006-11.312 1.98-14.408 5.93-3.163-3.939-7.997-5.9-14.496-5.89-12.169.016-18.246 6.567-18.228 19.646l.03 19.549 7.684-.016-.028-19.584c-.008-3.986.654-6.875 1.99-8.647 1.614-2.214 4.471-3.334 8.562-3.344 4.088-.006 6.977 1.11 8.651 3.322 1.334 1.764 2.005 4.647 2.008 8.639l.028 19.59 7.69-.016-.028-19.584c-.007-3.991.647-6.875 1.981-8.648 1.626-2.213 4.482-3.339 8.574-3.344 4.081-.005 6.971 1.111 8.65 3.318 1.333 1.769 1.993 4.652 2 8.644l.028 19.59 7.69-.016-.03-19.544c-.013-13.083-6.138-19.615-18.348-19.595zm-60.178 28.379c-1.621 2.177-4.48 3.273-8.569 3.278-4.094.005-6.948-1.081-8.575-3.253-1.338-1.773-2-4.673-2.008-8.668-.008-4.006.649-6.901 1.983-8.685 1.621-2.222 4.473-3.344 8.566-3.349 4.089-.005 6.951 1.111 8.578 3.329 1.331 1.772 2.005 4.667 2.01 8.668.005 4.007-.659 6.902-1.985 8.68zm-8.612-28.287c-12.227.02-18.324 6.571-18.304 19.654.018 13.033 6.135 19.533 18.356 19.519 12.169-.015 18.246-6.536 18.229-19.568-.017-13.085-6.117-19.617-18.281-19.605zm-38.646 7.667c4.68-.005 7.767 1.42 9.241 4.273l8.133-.01c-2.135-7.932-7.929-11.886-17.385-11.871-12.171.015-18.246 6.536-18.229 19.574.019 13.078 6.112 19.61 18.282 19.595 9.461-.01 15.242-4.011 17.352-11.997l-8.134.01c-1.518 2.915-4.599 4.37-9.229 4.38-4.089.005-6.948-1.106-8.583-3.329-1.325-1.778-2.002-4.662-2.008-8.668-.005-4.006.662-6.895 1.986-8.678 1.628-2.179 4.485-3.274 8.574-3.279z"></path>
    <defs>
        <path id="a"
              d="M337.932 109.443c-3.273-4.47-9.527-5.471-13.947-2.223-4.436 3.232-5.37 9.491-2.1 13.967 3.279 4.48 9.525 5.471 13.953 2.229 4.434-3.239 5.366-9.492 2.094-13.973"></path>
    </defs>
    <clipPath id="b">
        <use xlink:href="#a" overflow="visible"></use>
    </clipPath>
    <path clip-path="url(#b)" fill="#FAA831" d="M302.612 87.989h54.598v54.657h-54.598z"></path>
    <defs>
        <path id="c"
              d="M392.512 58.824l.433-1.061-5.84-14.7c-.358-.841-.538-1.457-.538-1.844 0-.401.106-.777.315-1.127.208-.348.492-.623.859-.833a2.283 2.283 0 0 1 1.137-.313c.684 0 1.202.218 1.546.652.348.434.656 1.058.921 1.866l4.017 11.679 3.801-10.86c.301-.88.576-1.568.818-2.065.245-.498.503-.837.773-1.011.272-.172.659-.261 1.156-.261.358 0 .702.096 1.03.285.333.195.586.453.766.778.179.32.271.662.271 1.021-.049.225-.122.535-.226.942-.105.404-.231.815-.384 1.229l-7.269 18.555c-.535 1.424-1.056 2.543-1.563 3.355a5.208 5.208 0 0 1-2.023 1.867c-.844.432-1.973.649-3.397.649-1.391 0-2.432-.149-3.129-.452-.694-.298-1.04-.854-1.04-1.652 0-.541.164-.96.492-1.258.331-.295.82-.444 1.468-.444.257 0 .505.038.747.106.303.067.563.104.783.104.543 0 .975-.081 1.286-.242.312-.162.593-.444.841-.844.249-.398 1.624-3.347 1.949-4.121zm20.153-17.185l-2.969 13.71c0 .947-.222 1.667-.677 2.154-.449.485-1.025.728-1.717.728-.697 0-1.264-.247-1.694-.743-.435-.502-.654-1.212-.654-2.139l2.968-13.57c0-.938.217-1.645.648-2.119.438-.475 1.003-.713 1.695-.713.697 0 1.271.238 1.723.713.45.474.677 1.136.677 1.979zm2.439 13.71l3.321-20.569c0-.955.213-1.672.637-2.157.422-.484.989-.728 1.712-.728.718 0 1.296.24 1.735.72.439.48.659 1.205.659 2.165-.75 4.566-1.293 7.999-1.621 10.284-.329 2.289-.896 5.711-1.7 10.285 0 .96-.225 1.685-.671 2.165-.445.479-1.021.717-1.729.717-.694 0-1.257-.247-1.694-.743-.434-.503-.649-1.213-.649-2.139z"></path>
    </defs>
    <clipPath id="d">
        <use xlink:href="#c" overflow="visible"></use>
    </clipPath>
    <path clip-path="url(#d)" fill="#F2A522" d="M367.621 14.573h72.869v70.376h-72.869z"></path>
    <path fill-rule="evenodd" clip-rule="evenodd" fill="#F2A522"
          d="M381.101 60.2c-.838 0-1.562-.27-2.172-.813-.608-.54-.914-1.298-.914-2.272 0-.826.29-1.535.873-2.133.581-.593 1.299-.891 2.152-.891.852 0 1.579.293 2.183.881.602.589.901 1.304.901 2.143 0 .962-.3 1.715-.901 2.263a3.061 3.061 0 0 1-2.122.822zM381.051 65.234c-.071.271-.132.54-.215.806-.409 1.321-1.097 1.563-2.218 1.968-1.256.454-3.313.568-4.973.812-3.814.549-10.46 2.036-13.753 3.055-6.771 2.094-10.255 3.629-16.473 6.026-2.24.858-4.455 1.841-6.669 2.818-1.58.698-3.065-.106-3.598-2.041-.538-1.95.203-3.935 1.798-4.71 4.839-2.352 9.803-4.133 14.818-5.656 6.036-1.833 12.129-3.215 18.278-4.102 3.319-.479 6.655-.79 9.986-1.108 1.743-.17 2.802.398 2.95 1.096.088.393.109.739.069 1.036zM421.475 63.239c-.062.106-.122.215-.189.318-.331.52-.629.545-1.116.588-.546.046-1.356-.149-2.034-.24-1.545-.215-4.313-.358-5.721-.309-2.892.102-4.355.014-7.076.309-.982.104-2.059.306-3.041.466-.705.113-1.175-.41-1.124-1.302.048-.906.5-1.74 1.311-1.82a93.408 93.408 0 0 1 6.483-.387 45.895 45.895 0 0 1 7.612.394c1.347.189 2.681.45 4.009.703.697.136 1.03.507.998.825-.022.177-.06.326-.112.455zM341.985 36.541c-.576.075-1.104.144-1.632.207-.46.058-.928.099-1.387.154-1.53.184-2.606-.301-3.031-1.372-.447-1.126.018-2.562 1.218-3.366a4.755 4.755 0 0 1 1.879-.753c2.564-.379 5.143-.672 7.716-1l.291-.03c1.566-.129 2.316.659 2.104 2.22-.187 1.374-.382 2.748-.573 4.119-1.182 8.354-2.364 16.701-3.538 25.053-.313 2.226-1.877 3.64-4.025 3.617-1.767-.012-2.835-1.225-2.592-3.003.51-3.745 1.055-7.494 1.581-11.24l1.977-14.032c.02-.165.006-.332.012-.574z"></path>
    <g>
        <path fill="#F2A522"
              d="M353.317 61.714c-1.914.252-3.439-.523-3.71-2.542-.177-1.312.207-2.391 1.175-3.368l11.944-11.849c2.439-2.423 3.573-4.266 3.309-6.238-.271-2.019-1.778-2.976-3.936-2.688-2.073.272-3.791 1.708-4.905 3.104-.381.497-1.03 1.118-1.946 1.242-1.556.204-2.897-1-3.124-2.71a3.307 3.307 0 0 1 .687-2.452c1.864-2.483 4.769-4.741 8.761-5.274 5.79-.768 10.01 2.237 10.672 7.193.506 3.766-.723 6.743-5.203 11.22l-7.754 7.632 8.582-1.142c1.476-.194 2.85.96 3.066 2.582.218 1.621-.811 3.054-2.288 3.25l-15.33 2.04z"></path>
    </g>
</svg>