<svg viewBox="0 0 32 32" width="32" xmlns="http://www.w3.org/2000/svg">
    <circle cx="16" cy="16" r="16" fill="#0786E7"/>
    <path d="m24.791 16.277c0.4672-0.0014 0.8867 0.2856 1.0548 0.7215 0.1578 0.4313 0.0382 0.9151-0.3024 1.2232l-7.9024 7.3321c-0.4479 0.4389-1.0496 0.6854-1.6767 0.6871-0.6312-0.0017-1.2371-0.248-1.6904-0.6871l-7.9094-7.3149c-0.34305-0.316-0.45685-0.8102-0.28653-1.2443 0.17032-0.4342 0.58979-0.7192 1.0562-0.7176h1.2713v-7.5589c0-0.94878 0.76914-1.7179 1.718-1.7179h11.682c0.9488 0 1.718 0.76914 1.718 1.7179v7.5589h1.2678zm-10.25 3.9183c2.8198 0 4.282-1.9843 4.6649-3.0635 0.1044-0.2785-0.0348-0.5918-0.2437-0.731-0.2785-0.1045-0.557 0.0348-0.6614 0.3133-0.0348 0.1044-0.8007 2.1235-3.168 2.3672v-2.959l2.7502-0.8356c0.2785-0.1044 0.4178-0.3829 0.3481-0.6614-0.1044-0.2785-0.3829-0.4177-0.6614-0.3481l-2.4717 0.7659v-0.6615l2.7502-0.8355c0.2785-0.1044 0.4178-0.3829 0.3481-0.6614-0.1044-0.2785-0.3829-0.4178-0.6614-0.3481l-2.4717 0.7658v-1.9843c0-0.2785-0.2437-0.5222-0.5222-0.5222s-0.5222 0.2437-0.5222 0.5222v2.2628l-1.0095 0.3133c-0.2785 0.1045-0.4178 0.383-0.3482 0.6615 0.0697 0.2437 0.2785 0.3829 0.4874 0.3829 0.0174 0 0.0435-0.0087 0.0696-0.0174s0.0523-0.0174 0.0697-0.0174l0.731-0.2089v0.6615l-1.0095 0.3133c-0.2785 0.1044-0.4178 0.3829-0.3482 0.6614 0.0697 0.2437 0.2785 0.383 0.4874 0.383 0.0174 0 0.0435-0.0087 0.0696-0.0174s0.0523-0.0174 0.0697-0.0174l0.731-0.2089v3.2027c0 0.2785 0.2437 0.5222 0.5222 0.5222z"
          clip-rule="evenodd" fill="#fff" fill-rule="evenodd"/>
</svg>
