<svg viewBox="0 0 32 32" width="32" xmlns="http://www.w3.org/2000/svg">
    <circle cx="16" cy="16" r="16" fill="#3AA03A"/>
    <path d="m12.614 14.907c-0.3451-0.3642-0.3451-0.9333 0-1.2975 0.3452-0.3642 0.8844-0.3642 1.2296 0 0.3451 0.3642 0.3451 0.9333 0 1.2975-0.3452 0.3642-0.906 0.3642-1.2296 0zm5.5007 2.4128c-0.3451 0.3642-0.3451 0.9333 0 1.2975 0.3452 0.3642 0.8844 0.3642 1.2296 0 0.3451-0.3642 0.3451-0.9333 0-1.2975-0.3236-0.3414-0.8844-0.3414-1.2296 0zm-11.886-3.5965c-0.45299-0.7511-0.21571-1.5478 0.56086-1.8665 0.755-0.3187 1.4884-0.6146 2.2434-0.9105 0.151-0.0683 0.21571-0.1366 0.21571-0.3187 0.02157-0.84217 0.06472-1.6844 0.12943-2.5266 0.06471-0.91051 0.66868-1.343 1.7257-1.0926 0.5393 0.15934 1.2943 0.36421 2.0277 0.59183 0.1942 0.06829 0.3236 0.02276 0.453-0.15934 0.4746-0.63735 0.9707-1.2747 1.4453-1.912 0.5393-0.70564 1.359-0.70564 1.8983 0 0.4961 0.63735 0.9923 1.2747 1.4884 1.9348 0.1079 0.13657 0.1942 0.1821 0.3667 0.13657 0.755-0.22762 1.5316-0.45525 2.2866-0.66011 0.8197-0.22763 1.4668 0.27315 1.51 1.1609 0.0431 0.84221 0.0863 1.6617 0.1294 2.5039 0 0.1821 0.0647 0.2731 0.2157 0.3187 0.7335 0.2731 1.4453 0.569 2.1787 0.8649 0.8629 0.3415 1.1217 1.1382 0.6256 1.9348-0.4099 0.6829-0.8413 1.3658-1.2727 2.0487-0.1079 0.1593-0.1079 0.2504 0 0.4097 0.453 0.6829 0.8844 1.3885 1.3158 2.0942 0.453 0.7511 0.2158 1.5478-0.5824 1.8892-0.7334 0.296-1.4668 0.5919-2.2003 0.8878-0.151 0.0683-0.2372 0.1366-0.2372 0.3414-0.0216 0.8422-0.0863 1.6845-0.1295 2.5267-0.0431 0.8649-0.7118 1.3657-1.51 1.1381-0.7765-0.2276-1.5531-0.4325-2.3297-0.6601-0.151-0.0455-0.2373 0-0.3235 0.1138-0.4962 0.6601-0.9923 1.2975-1.4885 1.9576-0.5392 0.7056-1.3374 0.7056-1.8982 0-0.4962-0.6374-1.0139-1.2975-1.4885-1.9576-0.1078-0.1366-0.1941-0.1593-0.3451-0.1138-0.755 0.2276-1.51 0.4097-2.2434 0.6601-0.9276 0.3187-1.6179-0.4097-1.5963-1.2292 0-0.7967-0.08628-1.6161-0.10785-2.4128 0-0.1821-0.06472-0.2504-0.21572-0.3187-0.755-0.2959-1.51-0.5918-2.265-0.9105-0.73343-0.2959-0.99228-1.1154-0.58243-1.7982 0.43143-0.7284 0.86286-1.4341 1.3159-2.1625 0.10785-0.1593 0.10785-0.2731 0-0.4097-0.453-0.6829-0.88443-1.3885-1.3159-2.0942zm12.511 2.0487c-1.1433 0-2.0924 0.9788-2.0924 2.2079 0 1.2065 0.9275 2.208 2.0924 2.208 1.1433 0 2.0924-0.9788 2.0924-2.208 0-1.2291-0.9491-2.2079-2.0924-2.2079zm-5.889 3.5054c-0.1726 0.2276-0.151 0.5691 0.0647 0.7512s0.5393 0.1593 0.7119-0.0683l5.4791-6.9654c0.1726-0.2276 0.151-0.569-0.0647-0.7511s-0.5393-0.1594-0.7119 0.0683l-5.4791 6.9653zm-1.7257-5.0305c0 1.2292 0.9276 2.208 2.0924 2.208 1.1433 0 2.0924-0.9788 2.0924-2.208 0-1.2064-0.9275-2.208-2.0924-2.208-1.1433 0.0228-2.0924 1.0016-2.0924 2.208z"
          fill="#fff"/>
</svg>
