<svg width="30" height="29" viewBox="0 0 30 29" fill="none" xmlns="http://www.w3.org/2000/svg">
    <path fill-rule="evenodd" clip-rule="evenodd"
          d="M29 14.0488C29 6.2439 22.7561 0 15.0488 0C7.2439 0 1 6.2439 1 14.0488C1 21.7561 7.2439 28 15.0488 28C22.7561 28 29 21.7561 29 14.0488ZM20.7073 9.46341C20.7073 6.34146 18.1707 3.80488 15.0488 3.80488C11.8293 3.80488 9.29268 6.34146 9.29268 9.46341C9.29268 11.5122 10.3659 13.3659 12.122 14.439C8.5122 15.5122 5.97561 18.6341 5.39024 22.2439C3.43902 20.0976 2.36585 17.1707 2.36585 14.0488C2.36585 7.02439 8.02439 1.36585 15.0488 1.36585C21.9756 1.36585 27.7317 7.02439 27.7317 14.0488C27.7317 17.1707 26.561 20.0976 24.6098 22.2439C24.122 18.6341 21.4878 15.5122 17.878 14.439C19.6341 13.3659 20.7073 11.5122 20.7073 9.46341ZM23.439 23.5122C23.3415 18.9268 19.6341 15.3171 15.0488 15.3171C10.4634 15.3171 6.65854 18.9268 6.56098 23.5122C8.80488 25.4634 11.8293 26.7317 15.0488 26.7317C18.2683 26.7317 21.1951 25.4634 23.439 23.5122ZM10.561 9.46342C10.561 7.02439 12.6098 5.07317 15.0488 5.07317C17.4878 5.07317 19.439 7.02439 19.439 9.46342C19.439 11.9024 17.4878 13.9512 15.0488 13.9512C12.6098 13.9512 10.561 11.9024 10.561 9.46342Z"
          fill="#4A90E2"/>
    <path d="M12.122 14.439L12.1932 14.6787L12.7316 14.5186L12.2523 14.2257L12.122 14.439ZM5.39024 22.2439L5.20526 22.4121L5.55403 22.7957L5.63702 22.2839L5.39024 22.2439ZM24.6098 22.2439L24.362 22.2774L24.4339 22.809L24.7947 22.4121L24.6098 22.2439ZM17.878 14.439L17.7477 14.2257L17.2684 14.5186L17.8068 14.6787L17.878 14.439ZM23.439 23.5122L23.6031 23.7008L23.6915 23.624L23.689 23.5069L23.439 23.5122ZM6.56098 23.5122L6.31103 23.5069L6.30854 23.624L6.39693 23.7008L6.56098 23.5122ZM15.0488 0.25C22.6169 0.25 28.75 6.38084 28.75 14.0488H29.25C29.25 6.10697 22.8953 -0.25 15.0488 -0.25V0.25ZM1.25 14.0488C1.25 6.38197 7.38197 0.25 15.0488 0.25V-0.25C7.10583 -0.25 0.75 6.10583 0.75 14.0488H1.25ZM15.0488 27.75C7.38084 27.75 1.25 21.6169 1.25 14.0488H0.75C0.75 21.8953 7.10697 28.25 15.0488 28.25V27.75ZM28.75 14.0488C28.75 21.618 22.618 27.75 15.0488 27.75V28.25C22.8942 28.25 29.25 21.8942 29.25 14.0488H28.75ZM15.0488 4.05488C18.0327 4.05488 20.4573 6.47953 20.4573 9.46341H20.9573C20.9573 6.20339 18.3088 3.55488 15.0488 3.55488V4.05488ZM9.54268 9.46341C9.54268 6.48232 11.9645 4.05488 15.0488 4.05488V3.55488C11.694 3.55488 9.04268 6.20061 9.04268 9.46341H9.54268ZM12.2523 14.2257C10.5679 13.1963 9.54268 11.4221 9.54268 9.46341H9.04268C9.04268 11.6023 10.1638 13.5354 11.9916 14.6523L12.2523 14.2257ZM5.63702 22.2839C6.20817 18.7618 8.68204 15.7225 12.1932 14.6787L12.0507 14.1994C8.34235 15.3019 5.74305 18.5064 5.14347 22.2039L5.63702 22.2839ZM2.11585 14.0488C2.11585 17.2271 3.20846 20.2156 5.20526 22.4121L5.57523 22.0757C3.66959 19.9795 2.61585 17.1143 2.61585 14.0488H2.11585ZM15.0488 1.11585C7.88632 1.11585 2.11585 6.88632 2.11585 14.0488H2.61585C2.61585 7.16246 8.16246 1.61585 15.0488 1.61585V1.11585ZM27.9817 14.0488C27.9817 6.88507 22.1124 1.11585 15.0488 1.11585V1.61585C21.8388 1.61585 27.4817 7.16371 27.4817 14.0488H27.9817ZM24.7947 22.4121C26.7879 20.2196 27.9817 17.2327 27.9817 14.0488H27.4817C27.4817 17.1087 26.334 19.9756 24.4248 22.0757L24.7947 22.4121ZM17.8068 14.6787C21.3225 15.7239 23.8874 18.7653 24.362 22.2774L24.8575 22.2104C24.3565 18.503 21.6531 15.3005 17.9493 14.1994L17.8068 14.6787ZM20.4573 9.46341C20.4573 11.4221 19.4321 13.1963 17.7477 14.2257L18.0084 14.6523C19.8362 13.5354 20.9573 11.6023 20.9573 9.46341H20.4573ZM15.0488 15.5671C19.4989 15.5671 23.0944 19.0689 23.1891 23.5175L23.689 23.5069C23.5885 18.7848 19.7694 15.0671 15.0488 15.0671V15.5671ZM6.81092 23.5175C6.90549 19.0726 10.5949 15.5671 15.0488 15.5671V15.0671C10.3319 15.0671 6.41158 18.7811 6.31103 23.5069L6.81092 23.5175ZM15.0488 26.4817C11.8944 26.4817 8.92721 25.2385 6.72502 23.3235L6.39693 23.7008C8.68254 25.6883 11.7641 26.9817 15.0488 26.9817V26.4817ZM23.275 23.3235C21.0712 25.2399 18.2012 26.4817 15.0488 26.4817V26.9817C18.3354 26.9817 21.3191 25.6869 23.6031 23.7008L23.275 23.3235ZM15.0488 4.82317C12.4789 4.82317 10.311 6.87923 10.311 9.46342H10.811C10.811 7.16955 12.7406 5.32317 15.0488 5.32317V4.82317ZM19.689 9.46342C19.689 6.88632 17.6259 4.82317 15.0488 4.82317V5.32317C17.3497 5.32317 19.189 7.16246 19.189 9.46342H19.689ZM15.0488 14.2012C17.633 14.2012 19.689 12.0333 19.689 9.46342H19.189C19.189 11.7716 17.3426 13.7012 15.0488 13.7012V14.2012ZM10.311 9.46342C10.311 12.0405 12.4717 14.2012 15.0488 14.2012V13.7012C12.7478 13.7012 10.811 11.7644 10.811 9.46342H10.311Z"
          fill="#4A90E2"/>
</svg>
